<svg id="Layer_1" data-name="Layer 1" xmlns="http://www.w3.org/2000/svg" viewBox="0 0 500 167.973">
  <title>mixwrx-logo</title>
  <g>
    <path d="M380.467,178.441h19.808l16.136,26.187,16.138-26.187h19.808V246.08H433.708V207.236l-17.3,26.475h-0.386l-17.2-26.282V246.08H380.467V178.441Z" transform="translate(-340.081 -128.419)" fill="#fff"/>
    <path d="M464.712,178.441h18.842V246.08H464.712V178.441Z" transform="translate(-340.081 -128.419)" fill="#fff"/>
    <path d="M513.312,211.682l-22.224-33.241h21.549l11.981,19.037L536.7,178.441h21.064l-22.223,33.047,23.19,34.593H537.178L524.23,225.691,511.186,246.08H490.122Z" transform="translate(-340.081 -128.419)" fill="#fff"/>
    <path d="M559.788,178.441H579.6l11.79,39.135,13.044-39.328h16.138l13.044,39.328L645.4,178.441h19.422l-22.61,68.122h-16.33l-13.624-38.941-13.528,38.941H582.4Z" transform="translate(-340.081 -128.419)" fill="#fff"/>
    <path d="M668.288,178.441h31.983c10.339,0,17.489,2.706,22.03,7.344,3.962,3.865,5.991,9.083,5.991,15.75v0.193c0,10.339-5.508,17.2-13.914,20.776l16.136,23.576H708.871L695.246,225.6h-8.213V246.08H668.288V178.441ZM699.4,210.907c6.377,0,10.049-3.092,10.049-8.019v-0.194c0-5.314-3.865-8.019-10.146-8.019H687.033v16.232H699.4Z" transform="translate(-340.081 -128.419)" fill="#fff"/>
    <path d="M754.278,211.682l-22.224-33.241H753.6l11.981,19.037,12.078-19.037h21.064L776.5,211.487l23.19,34.593H778.144L765.2,225.691,752.152,246.08H731.087Z" transform="translate(-340.081 -128.419)" fill="#fff"/>
  </g>
  <path d="M840.081,296.392h-500V128.419h500V296.392ZM358.453,278.02H821.708V146.792H358.453V278.02Z" transform="translate(-340.081 -128.419)" fill="#fff"/>
</svg>
